<?xml version="1.0" standalone="no"?>
<!DOCTYPE svg PUBLIC "-//W3C//DTD SVG 20010904//EN"
 "http://www.w3.org/TR/2001/REC-SVG-20010904/DTD/svg10.dtd">
<svg version="1.0" xmlns="http://www.w3.org/2000/svg"
 width="16.000000px" height="16.000000px" viewBox="0 0 1000.000000 1000.000000"
 preserveAspectRatio="xMidYMid meet">

<g transform="translate(0.000000,1000.000000) scale(0.100000,-0.100000)"
fill="#2563eb" stroke="none">
<path d="M2375 9370 c-430 -67 -677 -387 -765 -991 -56 -384 -50 -955 14
-1314 60 -338 210 -885 260 -953 55 -75 145 -118 230 -109 120 12 211 80 242
182 8 27 19 111 25 185 20 289 79 525 193 765 288 609 931 1114 1676 1315 155
42 198 49 390 65 337 28 717 11 946 -45 395 -95 721 -247 1039 -485 569 -425
869 -954 914 -1615 6 -74 17 -158 25 -185 31 -102 122 -170 242 -182 85 -9
175 34 230 109 50 68 200 615 260 953 64 359 70 930 14 1314 -82 562 -296 870
-675 972 -116 32 -345 32 -503 1 -231 -46 -452 -121 -887 -299 -126 -52 -271
-115 -320 -139 l-91 -45 -224 45 c-270 54 -339 63 -535 71 -278 11 -504 -12
-876 -91 l-116 -24 -89 44 c-203 101 -766 321 -974 381 -240 69 -493 98 -645
75z m245 -460 c102 -13 249 -49 385 -94 144 -49 445 -168 445 -176 0 -4 -42
-31 -92 -60 -239 -136 -469 -312 -669 -510 -168 -167 -239 -253 -357 -429 -76
-114 -242 -428 -242 -458 0 -7 -4 -13 -9 -13 -26 0 -55 437 -48 710 14 510 92
823 237 954 81 73 186 96 350 76z m4928 -17 c211 -65 322 -397 339 -1013 7
-273 -22 -710 -48 -710 -5 0 -9 6 -9 13 0 30 -166 344 -242 458 -118 176 -189
262 -357 429 -200 198 -430 374 -668 510 -51 29 -93 56 -93 60 0 4 78 37 173
75 476 186 723 235 905 178z"/>
<path d="M3570 6790 c-115 -21 -274 -110 -345 -193 -87 -101 -136 -232 -136
-365 -1 -110 13 -168 58 -254 129 -246 455 -330 724 -186 74 39 186 141 229
208 101 157 108 360 18 519 -39 67 -128 159 -192 196 -110 64 -252 95 -356 75z"/>
<path d="M6190 6790 c-162 -30 -311 -136 -393 -280 -85 -149 -75 -357 23 -510
43 -67 155 -169 229 -208 269 -144 595 -60 724 186 45 86 59 144 58 254 0 106
-36 221 -96 312 -111 167 -361 281 -545 246z"/>
<path d="M1284 5902 c-137 -65 -115 -263 33 -301 21 -5 208 -11 415 -14 362
-5 378 -4 417 15 102 50 116 200 25 265 -58 41 -95 45 -479 49 -350 5 -372 4
-411 -14z"/>
<path d="M7965 5870 c-121 -12 -165 -36 -197 -108 -34 -76 -2 -163 73 -200 39
-19 55 -20 417 -15 207 3 394 9 415 14 148 38 170 238 33 300 -37 17 -68 18
-351 17 -170 0 -346 -4 -390 -8z"/>
<path d="M4854 5776 c-38 -17 -74 -61 -74 -91 0 -28 -48 -95 -89 -124 -76 -54
-197 -84 -253 -62 -26 10 -28 15 -28 62 0 45 -4 55 -34 85 -98 98 -248 -33
-208 -182 24 -87 100 -163 197 -195 57 -19 198 -16 270 5 99 29 194 85 263
154 l62 63 63 -63 c68 -69 163 -125 262 -154 72 -21 213 -24 270 -5 138 45
227 175 197 287 -22 81 -70 124 -137 124 -29 0 -45 -8 -71 -34 -30 -30 -34
-40 -34 -85 0 -47 -2 -52 -27 -62 -100 -39 -319 72 -339 171 -8 40 -27 72 -57
94 -36 27 -184 34 -233 12z"/>
<path d="M2055 5418 c-44 -22 -442 -272 -544 -340 -81 -54 -115 -110 -108
-179 11 -126 135 -180 257 -113 126 70 558 349 592 383 24 23 41 53 49 82 11
42 10 50 -12 95 -13 27 -39 59 -58 71 -44 30 -120 30 -176 1z"/>
<path d="M7759 5367 c-19 -12 -45 -44 -58 -71 -22 -45 -23 -53 -12 -95 8 -29
25 -59 49 -82 34 -34 466 -313 592 -383 122 -67 246 -13 257 113 7 69 -27 125
-108 179 -111 75 -502 319 -546 341 -57 29 -129 28 -174 -2z"/>
<path d="M2454 5051 c-50 -13 -99 -48 -130 -93 -27 -40 -29 -49 -29 -144 l0
-102 62 -123 c405 -811 1116 -1644 2101 -2464 301 -251 427 -335 502 -335 75
0 201 84 502 335 985 820 1696 1653 2101 2464 l62 123 0 102 c0 95 -2 103 -29
144 -74 110 -232 130 -312 40 -36 -40 -98 -139 -159 -253 -211 -396 -462 -755
-824 -1175 -168 -196 -645 -670 -866 -862 -215 -186 -461 -388 -475 -388 -14
0 -260 202 -475 388 -221 192 -698 666 -866 862 -362 420 -613 779 -824 1175
-94 176 -156 265 -205 290 -34 17 -99 25 -136 16z"/>
</g>
</svg>
